<svg xmlns="http://www.w3.org/2000/svg" xmlns:xlink="http://www.w3.org/1999/xlink" width="1920" zoomAndPan="magnify" viewBox="0 0 1440 809.999993" height="1080" preserveAspectRatio="xMidYMid meet" version="1.0"><defs><clipPath id="679a6c40c9"><path d="M 356 30.308594 L 1084 30.308594 L 1084 754 L 356 754 Z M 356 30.308594 " clip-rule="nonzero"/></clipPath></defs><g clip-path="url(#679a6c40c9)"><path fill="#ffffff" d="M 763.363281 694.957031 C 762.875 701.402344 761.0625 707.8125 757.886719 713.757812 L 745.632812 736.667969 C 750.097656 739.234375 754.65625 741.925781 759.113281 744.375 C 769.753906 750.226562 783.230469 745.769531 789.003906 735.253906 C 794.972656 724.398438 790.898438 710.742188 780.136719 704.710938 C 774.574219 701.59375 768.972656 698.132812 763.363281 694.957031 Z M 611.070312 462.210938 C 644.445312 498.023438 683.050781 482.402344 719.738281 467.550781 C 753.253906 453.984375 785.433594 440.957031 816.097656 458.433594 L 935.40625 526.433594 C 939.660156 528.859375 943.394531 531.835938 946.558594 535.214844 C 947.164062 535.859375 947.75 536.519531 948.316406 537.195312 L 966.0625 529.789062 L 905.214844 372.832031 C 878.113281 387.335938 858.441406 379.003906 831.800781 368.113281 C 802.71875 356.226562 768.640625 342.296875 722.261719 374.113281 C 696.929688 391.421875 676.597656 416.058594 651.003906 435.273438 C 638.320312 444.796875 624.976562 453.765625 611.070312 462.210938 Z M 616.667969 584.269531 C 606.960938 579.089844 595.839844 577.457031 585.0625 579.589844 C 583.15625 564.25 573.992188 550.714844 560.289062 543.402344 C 541.617188 533.4375 518.507812 537.089844 503.777344 552.160156 C 500.835938 536.957031 496.761719 522.152344 479.585938 515.484375 C 478.558594 515.085938 476.84375 514.367188 474.601562 513.402344 L 543.089844 358.453125 L 550.972656 362.089844 C 574.945312 375.402344 597.167969 370.195312 621.316406 364.535156 C 643.035156 359.445312 666.640625 353.914062 693.371094 365.707031 C 673.859375 381.949219 656.9375 400.632812 636.519531 415.964844 C 622.527344 426.472656 607.175781 436.53125 590.679688 446.15625 C 582.234375 451.089844 580.050781 462.417969 586.046875 470.140625 C 631.953125 529.207031 681.699219 509.070312 728.828125 489.988281 C 756.816406 478.660156 783.691406 467.777344 804.167969 479.453125 L 923.476562 547.453125 C 934.097656 553.507812 938.4375 566.972656 932.476562 577.902344 C 926.335938 588.527344 913.320312 592.9375 902.34375 586.972656 C 875.03125 571.347656 847.414062 556.1875 820.085938 540.546875 C 814.285156 537.226562 806.886719 539.238281 803.566406 545.042969 C 800.246094 550.847656 802.261719 558.246094 808.066406 561.5625 C 835.371094 577.195312 862.824219 592.574219 890.273438 607.953125 C 901.011719 613.992188 905.167969 627.550781 899.1875 638.425781 C 893.410156 648.929688 879.425781 653.367188 868.855469 647.292969 L 760.789062 586.480469 C 754.960938 583.214844 747.585938 585.289062 744.316406 591.121094 C 741.050781 596.953125 743.125 604.328125 748.957031 607.59375 C 778.359375 624.140625 807.699219 640.953125 837.097656 657.441406 C 847.933594 663.542969 851.988281 677.121094 845.949219 688.0625 C 839.949219 698.78125 826.335938 702.691406 815.578125 696.746094 L 752.761719 661.191406 C 748.78125 656.308594 743.894531 652.316406 738.34375 649.347656 C 726.785156 643.175781 713.335938 642.046875 700.9375 646.15625 C 697.464844 633.550781 689.082031 622.988281 677.503906 616.808594 C 665.949219 610.644531 652.5 609.511719 640.101562 613.621094 C 636.632812 601.015625 628.242188 590.445312 616.667969 584.269531 Z M 671.878906 726.457031 C 670.136719 736.347656 674.984375 746.484375 683.867188 751.234375 C 695.195312 757.296875 709.484375 752.964844 715.546875 741.632812 L 736.550781 702.359375 C 742.613281 691.023438 738.1875 676.6875 726.953125 670.683594 C 717.523438 665.644531 705.625 667.765625 698.484375 675.699219 Z M 677.734375 664.609375 C 680.363281 654.257812 675.574219 643.195312 666.121094 638.148438 C 656.6875 633.113281 644.789062 635.226562 637.648438 643.160156 L 607.945312 700.128906 C 606.496094 709.871094 611.316406 719.640625 620.03125 724.300781 C 630.316406 729.800781 643.308594 726.761719 650.097656 717.296875 Z M 616.898438 632.070312 C 619.523438 621.71875 614.738281 610.65625 605.28125 605.609375 C 596.519531 600.933594 585.660156 602.363281 578.363281 609.050781 L 543.910156 670.699219 C 537.851562 682.03125 542.183594 696.320312 553.515625 702.378906 C 564.980469 708.511719 579.164062 704.042969 585.277344 692.625 Z M 559.148438 595.089844 C 564.222656 583.964844 559.703125 570.503906 548.90625 564.742188 C 537.566406 558.691406 523.28125 563 517.214844 574.335938 L 495.3125 615.292969 C 489.25 626.621094 493.582031 640.910156 504.914062 646.96875 C 513.625 651.628906 524.421875 650.222656 531.71875 643.621094 Z M 720.074219 30.371094 L 879.332031 98.625 L 879.332031 227.402344 C 879.332031 272.648438 863.816406 312.953125 837.597656 344.433594 C 827.816406 340.453125 817.546875 336.425781 806.558594 333.621094 C 809.226562 330.871094 811.789062 328.023438 814.238281 325.082031 C 836.113281 298.828125 849.039062 265.308594 849.039062 227.402344 L 849.039062 126.589844 C 849.039062 121.285156 845.628906 116.777344 840.882812 115.136719 L 724.808594 65.390625 C 721.660156 64.050781 718.257812 64.148438 715.339844 65.390625 L 598.492188 115.464844 C 593.894531 117.421875 591.136719 121.890625 591.136719 126.589844 L 591.109375 227.402344 C 591.109375 265.308594 604.035156 298.828125 625.910156 325.082031 C 629.234375 329.070312 632.765625 332.886719 636.484375 336.527344 C 629.414062 337.78125 622.542969 339.390625 615.828125 340.964844 C 611.1875 342.050781 606.640625 343.117188 602.183594 343.988281 C 576.1875 312.574219 560.816406 272.4375 560.816406 227.402344 L 560.816406 98.625 Z M 720.074219 89.664062 L 615.34375 134.546875 L 615.34375 227.398438 C 615.34375 259.46875 626.160156 287.679688 644.464844 309.648438 C 652.5 319.292969 661.996094 327.761719 672.671875 334.859375 C 685.972656 336.394531 700.097656 340.742188 715.292969 349.777344 C 737.265625 336.054688 756.75 330.632812 774.386719 329.945312 C 782.285156 323.953125 789.425781 317.15625 795.683594 309.648438 C 813.988281 287.679688 824.804688 259.46875 824.804688 227.398438 L 824.804688 134.546875 Z M 794.15625 195.140625 C 768.300781 221.234375 742.625 247.5 716.648438 273.476562 C 709.054688 281.070312 696.738281 281.070312 689.144531 273.476562 L 646.050781 230.382812 C 638.457031 222.792969 638.457031 210.472656 646.050781 202.878906 C 653.644531 195.285156 665.964844 195.285156 673.554688 202.878906 L 702.851562 232.179688 L 766.613281 167.785156 C 774.160156 160.164062 786.472656 160.140625 794.074219 167.699219 C 801.671875 175.253906 801.695312 187.53125 794.15625 195.140625 Z M 1082.1875 517.53125 L 995.367188 293.582031 C 991.167969 282.753906 978.875 277.332031 968.046875 281.527344 L 924.933594 298.242188 C 914.109375 302.4375 908.683594 314.734375 912.878906 325.558594 L 999.699219 549.507812 C 1003.894531 560.335938 1016.191406 565.761719 1027.019531 561.566406 L 1070.128906 544.851562 C 1080.957031 540.65625 1086.382812 528.359375 1082.1875 517.53125 Z M 962.257812 344.921875 C 954.320312 344.921875 947.890625 338.488281 947.890625 330.554688 C 947.890625 322.617188 954.320312 316.1875 962.257812 316.1875 C 970.191406 316.1875 976.625 322.617188 976.625 330.554688 C 976.625 338.488281 970.191406 344.921875 962.257812 344.921875 Z M 525.574219 285.902344 L 483.28125 267.207031 C 472.660156 262.511719 460.125 267.363281 455.433594 277.984375 L 358.335938 497.671875 C 353.640625 508.296875 358.488281 520.828125 369.113281 525.523438 L 411.402344 544.214844 C 422.023438 548.910156 434.558594 544.058594 439.25 533.4375 L 536.351562 313.75 C 541.042969 303.128906 536.195312 290.597656 525.574219 285.902344 Z M 486.128906 330.800781 C 478.203125 330.433594 472.078125 323.710938 472.445312 315.785156 C 472.8125 307.859375 479.535156 301.730469 487.460938 302.097656 C 495.386719 302.464844 501.515625 309.1875 501.148438 317.117188 C 500.777344 325.039062 494.054688 331.167969 486.128906 330.800781 Z M 486.128906 330.800781 " fill-opacity="1" fill-rule="evenodd"/></g></svg>