<svg xmlns="http://www.w3.org/2000/svg" xmlns:xlink="http://www.w3.org/1999/xlink" width="1920" zoomAndPan="magnify" viewBox="0 0 1440 809.999993" height="1080" preserveAspectRatio="xMidYMid meet" version="1.0"><defs><clipPath id="5d6eb02540"><path d="M 353.332031 78 L 687 78 L 687 658 L 353.332031 658 Z M 353.332031 78 " clip-rule="nonzero"/></clipPath><clipPath id="035860be52"><path d="M 658 30.308594 L 759 30.308594 L 759 164 L 658 164 Z M 658 30.308594 " clip-rule="nonzero"/></clipPath><clipPath id="0a8c0b7958"><path d="M 649 130 L 983.332031 130 L 983.332031 709 L 649 709 Z M 649 130 " clip-rule="nonzero"/></clipPath><clipPath id="e173d72b57"><path d="M 577 624 L 678 624 L 678 757.058594 L 577 757.058594 Z M 577 624 " clip-rule="nonzero"/></clipPath></defs><g clip-path="url(#5d6eb02540)"><path fill="#ffffff" d="M 500.96875 657.128906 C 497.140625 657.128906 493.734375 655.851562 490.757812 653.726562 C 404.8125 595.011719 353.332031 498.003906 353.332031 393.765625 C 353.332031 220.171875 494.585938 78.917969 668.179688 78.917969 C 678.390625 78.917969 686.472656 87 686.472656 97.210938 C 686.472656 107.421875 678.390625 115.507812 668.179688 115.507812 C 515.007812 115.507812 389.921875 240.59375 389.921875 393.765625 C 389.921875 486.089844 435.445312 571.609375 511.179688 623.941406 C 519.6875 629.472656 521.816406 640.960938 515.859375 649.046875 C 512.457031 654.152344 506.925781 657.128906 500.96875 657.128906 Z M 500.96875 657.128906 " fill-opacity="1" fill-rule="evenodd"/></g><g clip-path="url(#035860be52)"><path fill="#ffffff" d="M 668.179688 163.585938 C 666.902344 163.585938 665.199219 163.160156 663.921875 162.734375 C 660.519531 161.03125 658.390625 157.628906 658.390625 153.796875 L 658.390625 40.625 C 658.390625 36.792969 660.519531 33.816406 663.921875 32.113281 C 666.902344 30.414062 671.15625 30.414062 674.132812 32.539062 L 754.546875 89.128906 C 757.101562 91.253906 758.378906 94.234375 758.378906 97.210938 C 758.378906 100.613281 757.101562 103.59375 754.546875 105.296875 L 674.132812 161.882812 C 672.433594 163.160156 670.304688 163.585938 668.179688 163.585938 Z M 668.179688 163.585938 " fill-opacity="1" fill-rule="evenodd"/></g><g clip-path="url(#0a8c0b7958)"><path fill="#ffffff" d="M 668.179688 708.613281 C 658.390625 708.613281 649.882812 700.527344 649.882812 690.742188 C 649.882812 680.53125 658.390625 672.445312 668.179688 672.445312 C 821.773438 672.445312 946.859375 547.359375 946.859375 393.765625 C 946.859375 301.863281 901.335938 215.917969 825.175781 164.011719 C 817.09375 158.480469 814.964844 146.992188 820.496094 138.480469 C 826.453125 130.398438 837.515625 128.269531 846.023438 133.800781 C 931.96875 192.515625 983.023438 289.949219 983.023438 393.765625 C 983.023438 567.355469 841.769531 708.613281 668.179688 708.613281 Z M 668.179688 708.613281 " fill-opacity="1" fill-rule="evenodd"/></g><g clip-path="url(#e173d72b57)"><path fill="#ffffff" d="M 668.179688 757.113281 C 666.476562 757.113281 664.347656 756.265625 662.648438 754.988281 L 582.234375 698.398438 C 579.679688 696.699219 577.976562 693.71875 577.976562 690.742188 C 577.976562 687.335938 579.679688 684.359375 582.234375 682.65625 L 662.648438 626.070312 C 665.625 623.941406 669.453125 623.515625 672.859375 625.21875 C 675.835938 626.921875 677.964844 630.324219 677.964844 633.730469 L 677.964844 747.328125 C 677.964844 750.734375 675.835938 754.136719 672.859375 755.839844 C 671.582031 756.6875 669.878906 757.113281 668.179688 757.113281 Z M 668.179688 757.113281 " fill-opacity="1" fill-rule="evenodd"/></g><path fill="#ffffff" d="M 698.386719 600.96875 L 638.394531 600.96875 C 633.714844 600.96875 629.460938 597.5625 628.609375 592.882812 L 617.972656 526.9375 C 603.507812 521.40625 590.316406 513.746094 578.402344 503.960938 L 515.859375 527.785156 C 511.605469 529.488281 506.5 527.359375 503.945312 523.53125 L 474.164062 471.625 C 471.609375 467.371094 472.460938 461.839844 476.289062 458.859375 L 528.199219 416.738281 C 526.921875 409.507812 526.070312 401.421875 526.070312 393.765625 C 526.070312 386.105469 526.921875 378.445312 528.199219 370.789062 L 476.289062 328.667969 C 472.460938 325.6875 471.609375 320.582031 474.164062 316.328125 L 503.945312 264.421875 C 506.5 260.167969 511.605469 258.464844 515.859375 260.167969 L 578.402344 283.992188 C 590.316406 274.207031 603.507812 266.546875 617.972656 261.015625 L 628.609375 195.070312 C 629.460938 190.390625 633.714844 186.984375 638.394531 186.984375 L 698.386719 186.984375 C 703.066406 186.984375 707.320312 190.390625 707.746094 195.070312 L 718.382812 261.015625 C 732.847656 266.546875 746.464844 274.207031 758.378906 283.992188 L 820.496094 260.167969 C 825.175781 258.464844 830.28125 260.167969 832.410156 264.421875 L 862.617188 316.328125 C 864.746094 320.582031 863.894531 325.6875 860.066406 328.667969 L 808.582031 370.789062 C 809.859375 378.445312 810.285156 386.105469 810.285156 393.765625 C 810.285156 401.421875 809.859375 409.082031 808.582031 416.738281 L 860.066406 458.859375 C 863.894531 461.839844 864.746094 467.371094 862.617188 471.625 L 832.410156 523.53125 C 830.28125 527.359375 825.175781 529.0625 820.496094 527.359375 L 758.378906 503.960938 C 746.464844 513.746094 732.847656 521.40625 718.382812 526.9375 L 707.746094 592.882812 C 707.320312 597.5625 703.066406 600.96875 698.386719 600.96875 Z M 668.179688 486.941406 C 719.660156 486.941406 761.355469 445.246094 761.355469 393.765625 C 761.355469 342.707031 719.660156 301.011719 668.179688 301.011719 C 617.121094 301.011719 575.425781 342.707031 575.425781 393.765625 C 575.425781 445.246094 617.121094 486.941406 668.179688 486.941406 Z M 668.179688 311.648438 C 713.703125 311.648438 750.292969 348.664062 750.292969 393.765625 C 750.292969 439.289062 713.703125 475.878906 668.179688 475.878906 C 623.078125 475.878906 586.0625 439.289062 586.0625 393.765625 C 586.0625 348.664062 623.078125 311.648438 668.179688 311.648438 Z M 668.179688 311.648438 " fill-opacity="1" fill-rule="evenodd"/></svg>