<svg xmlns="http://www.w3.org/2000/svg" xmlns:xlink="http://www.w3.org/1999/xlink" width="1920" zoomAndPan="magnify" viewBox="0 0 1440 809.999993" height="1080" preserveAspectRatio="xMidYMid meet" version="1.0"><defs><clipPath id="11fd2904a0"><path d="M 291 30.308594 L 1158 30.308594 L 1158 757.058594 L 291 757.058594 Z M 291 30.308594 " clip-rule="nonzero"/></clipPath><clipPath id="f8dec3b564"><path d="M 282.09375 43 L 439 43 L 439 199 L 282.09375 199 Z M 282.09375 43 " clip-rule="nonzero"/></clipPath></defs><path fill="#ffffff" d="M 771.917969 94.460938 L 801.457031 94.460938 L 801.457031 151.996094 L 771.917969 151.996094 Z M 771.917969 94.460938 " fill-opacity="1" fill-rule="nonzero"/><path fill="#ffffff" d="M 771.917969 569.84375 L 801.457031 569.84375 L 801.457031 627.378906 L 771.917969 627.378906 Z M 771.917969 569.84375 " fill-opacity="1" fill-rule="nonzero"/><path fill="#ffffff" d="M 671.476562 120.199219 L 698.785156 108.941406 L 720.71875 162.132812 L 693.410156 173.394531 Z M 671.476562 120.199219 " fill-opacity="1" fill-rule="nonzero"/><path fill="#ffffff" d="M 852.683594 559.722656 L 879.992188 548.464844 L 901.921875 601.65625 L 874.617188 612.914062 Z M 852.683594 559.722656 " fill-opacity="1" fill-rule="nonzero"/><path fill="#ffffff" d="M 534.515625 273.597656 L 545.710938 246.261719 L 598.953125 268.070312 L 587.757812 295.402344 Z M 534.515625 273.597656 " fill-opacity="1" fill-rule="nonzero"/><path fill="#ffffff" d="M 974.433594 453.773438 L 985.628906 426.441406 L 1038.871094 448.246094 L 1027.675781 475.582031 Z M 974.433594 453.773438 " fill-opacity="1" fill-rule="nonzero"/><path fill="#ffffff" d="M 535.898438 452.054688 L 588.800781 429.4375 L 600.410156 456.59375 L 547.507812 479.210938 Z M 535.898438 452.054688 " fill-opacity="1" fill-rule="nonzero"/><path fill="#ffffff" d="M 973.011719 265.183594 L 1025.914062 242.566406 L 1037.527344 269.726562 L 984.621094 292.34375 Z M 973.011719 265.183594 " fill-opacity="1" fill-rule="nonzero"/><path fill="#ffffff" d="M 663.675781 597.722656 L 687.332031 545.273438 L 714.257812 557.414062 L 690.601562 609.867188 Z M 663.675781 597.722656 " fill-opacity="1" fill-rule="nonzero"/><path fill="#ffffff" d="M 859.113281 164.375 L 882.765625 111.925781 L 909.691406 124.066406 L 886.039062 176.515625 Z M 859.113281 164.375 " fill-opacity="1" fill-rule="nonzero"/><path fill="#ffffff" d="M 587.816406 182.941406 L 608.703125 162.058594 L 649.386719 202.742188 L 628.503906 223.628906 Z M 587.816406 182.941406 " fill-opacity="1" fill-rule="nonzero"/><path fill="#ffffff" d="M 923.980469 519.113281 L 944.863281 498.230469 L 985.550781 538.914062 L 964.664062 559.796875 Z M 923.980469 519.113281 " fill-opacity="1" fill-rule="nonzero"/><path fill="#ffffff" d="M 995.625 346.140625 L 1053.160156 346.140625 L 1053.160156 375.675781 L 995.625 375.675781 Z M 995.625 346.140625 " fill-opacity="1" fill-rule="nonzero"/><path fill="#ffffff" d="M 587.828125 538.90625 L 628.511719 498.222656 L 649.398438 519.109375 L 608.714844 559.792969 Z M 587.828125 538.90625 " fill-opacity="1" fill-rule="nonzero"/><path fill="#ffffff" d="M 751.996094 358.378906 C 741.6875 370.546875 743.175781 388.78125 755.34375 399.117188 C 767.507812 409.425781 785.746094 407.9375 796.078125 395.769531 L 994.261719 161.980469 L 755.863281 354.589844 C 754.523438 355.703125 753.136719 357.015625 751.996094 358.378906 Z M 751.996094 358.378906 " fill-opacity="1" fill-rule="nonzero"/><g clip-path="url(#11fd2904a0)"><path fill="#ffffff" d="M 1157.652344 374.882812 C 1157.453125 369.257812 1157.15625 363.632812 1156.6875 358.03125 C 1155.792969 346.808594 1154.382812 335.65625 1152.449219 324.582031 C 1148.609375 302.453125 1142.660156 280.722656 1134.804688 259.808594 C 1126.953125 238.894531 1117.113281 218.800781 1105.542969 199.820312 C 1093.96875 180.863281 1080.6875 163.046875 1065.921875 146.644531 C 1051.152344 130.265625 1034.898438 115.296875 1017.453125 101.992188 C 1000.007812 88.6875 981.375 77.039062 961.898438 67.253906 C 942.398438 57.464844 922.054688 49.535156 901.191406 43.589844 C 880.328125 37.617188 858.96875 33.675781 837.507812 31.742188 C 826.78125 30.753906 816.027344 30.308594 805.296875 30.332031 C 799.917969 30.332031 794.566406 30.480469 789.214844 30.753906 C 787.875 30.800781 786.539062 30.875 785.199219 30.976562 L 781.1875 31.222656 C 778.511719 31.421875 775.859375 31.644531 773.183594 31.894531 C 762.527344 32.910156 751.921875 34.394531 741.417969 36.351562 C 730.910156 38.335938 720.527344 40.863281 710.269531 43.835938 C 700.035156 46.835938 689.976562 50.378906 680.113281 54.367188 C 670.25 58.382812 660.636719 62.941406 651.269531 67.921875 C 646.613281 70.472656 641.980469 73.027344 637.46875 75.800781 C 635.1875 77.140625 632.960938 78.601562 630.730469 79.988281 C 629.613281 80.707031 628.523438 81.425781 627.410156 82.167969 C 626.320312 82.914062 625.203125 83.605469 624.113281 84.375 C 615.390625 90.320312 606.941406 96.691406 598.914062 103.503906 C 594.875 106.875 590.984375 110.417969 587.117188 113.984375 L 584.269531 116.710938 L 582.855469 118.074219 L 581.46875 119.460938 L 578.667969 122.238281 L 575.917969 125.0625 C 568.609375 132.59375 561.769531 140.523438 555.277344 148.675781 C 548.785156 156.878906 542.738281 165.375 537.066406 174.097656 C 531.441406 182.847656 526.1875 191.816406 521.355469 201.007812 C 516.546875 210.203125 512.136719 219.566406 508.148438 229.109375 C 504.160156 238.648438 500.589844 248.335938 497.367188 258.125 C 501.257812 248.585938 505.496094 239.191406 510.128906 230.023438 C 514.765625 220.855469 519.792969 211.910156 525.144531 203.1875 C 530.546875 194.492188 536.320312 186.042969 542.417969 177.863281 C 548.5625 169.738281 555.054688 161.859375 561.894531 154.351562 C 568.757812 146.867188 575.917969 139.65625 583.476562 132.917969 L 586.300781 130.390625 L 589.175781 127.910156 L 590.613281 126.671875 L 592.074219 125.457031 L 594.996094 123.054688 C 598.9375 119.90625 602.902344 116.785156 606.992188 113.835938 C 615.117188 107.863281 623.566406 102.386719 632.242188 97.332031 C 633.304688 96.6875 634.421875 96.09375 635.511719 95.476562 C 636.601562 94.855469 637.691406 94.234375 638.808594 93.640625 C 641.011719 92.476562 643.21875 91.238281 645.449219 90.121094 C 649.882812 87.820312 654.417969 85.6875 658.976562 83.605469 C 668.121094 79.542969 677.4375 75.925781 686.902344 72.828125 C 696.367188 69.753906 705.984375 67.101562 715.695312 64.996094 C 725.410156 62.890625 735.195312 61.253906 745.058594 60.089844 C 754.921875 58.949219 764.808594 58.28125 774.71875 58.035156 C 794.542969 57.613281 814.339844 58.851562 833.742188 62 C 853.144531 65.121094 872.199219 70.003906 890.5625 76.644531 C 908.921875 83.257812 926.589844 91.609375 943.289062 101.472656 C 959.992188 111.332031 975.699219 122.757812 990.195312 135.46875 C 1004.691406 148.179688 1017.949219 162.203125 1029.769531 177.269531 C 1041.589844 192.335938 1051.945312 208.441406 1060.71875 225.316406 C 1069.464844 242.191406 1076.625 259.808594 1082.027344 277.871094 C 1087.429688 295.9375 1091.144531 314.445312 1093.078125 333.105469 C 1094.046875 342.421875 1094.566406 351.789062 1094.6875 361.128906 C 1094.738281 365.8125 1094.6875 370.472656 1094.515625 375.15625 C 1094.34375 379.761719 1094.070312 384.324219 1093.671875 388.90625 C 1092.085938 407.167969 1088.496094 425.160156 1083.117188 442.578125 C 1077.742188 459.996094 1070.503906 476.847656 1061.757812 492.878906 C 1052.988281 508.910156 1042.628906 524.101562 1031.007812 538.273438 C 1007.738281 566.621094 979.394531 590.90625 948.097656 609.960938 C 916.800781 629.0625 882.558594 642.964844 847.394531 650.84375 C 838.597656 652.800781 829.777344 654.414062 820.90625 655.601562 C 812.0625 656.792969 803.164062 657.609375 794.320312 658.03125 C 776.601562 658.847656 758.960938 658.105469 741.589844 655.703125 C 706.824219 650.96875 673.175781 639.816406 642.648438 623.242188 C 612.09375 606.6875 584.691406 584.734375 562.191406 558.988281 C 550.941406 546.128906 540.929688 532.300781 532.308594 517.808594 C 523.707031 503.3125 516.523438 488.121094 510.875 472.535156 C 505.222656 456.925781 501.136719 440.917969 498.65625 424.738281 C 497.789062 419.1875 497.144531 413.636719 496.675781 408.0625 L 563.03125 408.0625 C 565.386719 408.0625 566.75 405.433594 565.410156 403.5 L 431.234375 212.308594 C 430.070312 210.671875 427.640625 210.671875 426.5 212.308594 L 292.324219 403.5 C 290.984375 405.410156 292.347656 408.0625 294.703125 408.0625 L 363.984375 408.0625 C 365.570312 422.160156 367.925781 436.160156 371.046875 449.960938 C 376.546875 474.195312 384.378906 497.785156 394.363281 520.285156 C 404.347656 542.785156 416.417969 564.21875 430.265625 584.238281 C 444.144531 604.261719 459.777344 622.894531 476.851562 639.917969 C 493.949219 656.941406 512.507812 672.328125 532.183594 685.957031 C 551.882812 699.585938 572.722656 711.429688 594.429688 721.316406 C 637.789062 741.113281 684.621094 753.035156 731.875 756.179688 C 743.695312 756.972656 755.515625 757.222656 767.308594 756.921875 C 779.105469 756.625 790.875 755.832031 802.519531 754.496094 C 814.167969 753.15625 825.738281 751.296875 837.160156 748.96875 C 848.585938 746.640625 859.882812 743.789062 871.011719 740.519531 C 915.511719 727.335938 957.316406 706.871094 994.707031 680.503906 C 1032.097656 654.140625 1065.152344 621.753906 1091.765625 584.535156 C 1105.046875 565.902344 1116.691406 546.078125 1126.355469 525.265625 C 1135.996094 504.453125 1143.652344 482.671875 1148.953125 460.320312 C 1154.257812 437.96875 1157.230469 415.074219 1157.675781 392.179688 C 1157.875 386.304688 1157.824219 380.554688 1157.652344 374.882812 Z M 1157.652344 374.882812 " fill-opacity="1" fill-rule="nonzero"/></g><g clip-path="url(#f8dec3b564)"><path fill="#ffffff" d="M 309.347656 154.996094 L 304.9375 169.589844 C 303.917969 172.984375 305.132812 176.652344 307.984375 178.730469 L 320.867188 188.222656 C 323.71875 190.328125 327.582031 190.402344 330.507812 188.421875 L 343.144531 179.898438 L 348.175781 181.136719 L 355.359375 194.566406 C 356.5 196.695312 358.484375 198.183594 360.738281 198.730469 C 361.777344 198.976562 362.894531 199.050781 363.984375 198.878906 L 379.816406 196.5 C 383.3125 195.980469 386.113281 193.300781 386.78125 189.832031 L 389.679688 174.867188 L 394.113281 172.191406 L 408.710938 176.601562 C 412.105469 177.617188 415.773438 176.402344 417.851562 173.554688 L 427.34375 160.667969 C 429.449219 157.820312 429.523438 153.953125 427.542969 151.03125 L 419.019531 138.390625 L 420.257812 133.363281 L 433.6875 126.175781 C 436.808594 124.515625 438.542969 121.046875 438 117.554688 L 435.621094 101.71875 C 435.097656 98.226562 432.421875 95.425781 428.953125 94.757812 L 413.988281 91.859375 L 411.3125 87.421875 L 415.722656 72.828125 C 416.738281 69.433594 415.523438 65.765625 412.675781 63.683594 L 399.789062 54.195312 C 396.941406 52.085938 393.074219 52.011719 390.152344 53.996094 L 377.511719 62.519531 L 372.484375 61.28125 L 365.296875 47.851562 C 363.636719 44.726562 360.167969 42.992188 356.675781 43.539062 L 340.839844 45.917969 C 337.347656 46.4375 334.546875 49.113281 333.878906 52.582031 L 330.976562 67.550781 L 326.542969 70.226562 L 311.949219 65.816406 C 308.554688 64.800781 304.886719 66.011719 302.804688 68.863281 L 293.316406 81.746094 C 291.207031 84.597656 291.132812 88.460938 293.117188 91.386719 L 301.640625 104.023438 L 300.402344 109.054688 L 286.972656 116.238281 C 283.847656 117.898438 282.113281 121.371094 282.660156 124.863281 L 285.039062 140.695312 C 285.558594 144.191406 288.234375 146.992188 291.703125 147.660156 L 306.671875 150.558594 Z M 328.625 113.390625 C 332.960938 95.871094 350.675781 85.191406 368.195312 89.527344 C 385.714844 93.863281 396.394531 111.582031 392.058594 129.101562 C 387.722656 146.617188 370.003906 157.296875 352.488281 152.960938 C 334.96875 148.625 324.289062 130.910156 328.625 113.390625 Z M 328.625 113.390625 " fill-opacity="1" fill-rule="nonzero"/></g><path fill="#ffffff" d="M 437.378906 130.859375 C 435.398438 130.660156 433.511719 131.75 432.695312 133.558594 L 428.90625 141.6875 C 428.0625 143.496094 428.457031 145.628906 429.871094 147.015625 L 435.964844 153.011719 L 435.84375 155.910156 L 429.25 161.363281 C 427.714844 162.625 427.144531 164.707031 427.839844 166.589844 L 430.910156 175.015625 C 431.582031 176.875 433.363281 178.113281 435.347656 178.089844 L 443.894531 178.015625 L 445.851562 180.144531 L 445.0625 188.644531 C 444.863281 190.625 445.953125 192.507812 447.761719 193.328125 L 455.890625 197.117188 C 457.699219 197.960938 459.828125 197.5625 461.214844 196.152344 L 467.214844 190.054688 L 470.113281 190.179688 L 475.5625 196.769531 C 476.429688 197.8125 477.667969 198.40625 478.984375 198.457031 C 479.578125 198.480469 480.195312 198.382812 480.792969 198.183594 L 489.214844 195.109375 C 491.074219 194.441406 492.3125 192.65625 492.289062 190.675781 L 492.214844 182.128906 L 494.347656 180.167969 L 502.84375 180.960938 C 504.828125 181.160156 506.710938 180.070312 507.527344 178.261719 L 511.320312 170.132812 C 512.160156 168.324219 511.765625 166.195312 510.351562 164.804688 L 504.257812 158.808594 L 504.382812 155.910156 L 510.972656 150.460938 C 512.507812 149.195312 513.078125 147.113281 512.386719 145.230469 L 509.3125 136.804688 C 508.644531 134.949219 506.859375 133.710938 504.875 133.734375 L 496.328125 133.808594 L 494.371094 131.675781 L 495.164062 123.179688 C 495.363281 121.195312 494.269531 119.3125 492.460938 118.496094 L 484.335938 114.703125 C 482.527344 113.859375 480.394531 114.257812 479.007812 115.671875 L 473.011719 121.765625 L 470.113281 121.640625 L 464.660156 115.050781 C 463.398438 113.515625 461.316406 112.945312 459.433594 113.636719 L 451.007812 116.710938 C 449.148438 117.378906 447.910156 119.164062 447.933594 121.144531 L 448.007812 129.695312 L 445.878906 131.652344 Z M 451.824219 155.117188 C 452.269531 145.007812 460.796875 137.179688 470.90625 137.597656 C 481.015625 138.046875 488.84375 146.570312 488.421875 156.679688 C 487.976562 166.789062 479.453125 174.617188 469.34375 174.199219 C 459.234375 173.777344 451.378906 165.226562 451.824219 155.117188 Z M 451.824219 155.117188 " fill-opacity="1" fill-rule="nonzero"/></svg>